<svg width="32" height="37" viewBox="0 0 32 37" fill="none" xmlns="http://www.w3.org/2000/svg">
<path d="M25.4444 5.8C28.6 8.935 31.1857 11.5 31.1895 11.5C31.1972 11.5 31.201 8.935 31.201 5.8V0.1H25.4558H19.7069L25.4444 5.8Z" fill="#EDEDED"/>
<path d="M0.600998 21V36.2H15.901H31.201V26.7076V17.219L29.6136 15.642L28.0262 14.065V19.879C28.0262 25.6664 28.0071 26.529 27.8924 27.1028C27.6667 28.2048 27.1618 29.1168 26.3241 29.949C25.4291 30.8382 24.4575 31.3816 23.2909 31.6476L22.9199 31.7312L16.1305 31.7464C11.2804 31.754 9.23785 31.7464 8.97775 31.716C7.67342 31.564 6.54887 31.013 5.59262 30.063C4.6249 29.1016 4.0435 27.9844 3.8446 26.7C3.80635 26.4416 3.79487 24.7506 3.79487 18.321V10.265H6.58712H9.37937L9.39085 18.0816L9.3985 25.902H11.2536H13.1087V18.074V10.246H15.901H18.6932V18.074V25.902H20.5484H22.4035L22.4111 18.0816L22.4226 10.265L23.3024 10.2536L24.1821 10.246L21.9445 8.02301L19.7069 5.80001H10.1558H0.600998V21Z" fill="#EDEDED"/>
</svg>
